Coordinates
version=1
nRows=15
nColumns=23
inDegrees=yes

Units are S.I. units (second, meters, Newtons, ...)
If the header above contains a line with 'inDegrees', this indicates whether rotational values are in degrees (yes) or radians (no).

endheader
time	pelvis_tilt	pelvis_list	pelvis_rotation	pelvis_tx	pelvis_ty	pelvis_tz	hip_flexion_r	hip_adduction_r	hip_rotation_r	knee_angle_r	knee_angle_r_beta	ankle_angle_r	subtalar_angle_r	mtp_angle_r	hip_flexion_l	hip_adduction_l	hip_rotation_l	knee_angle_l	knee_angle_l_beta	ankle_angle_l	subtalar_angle_l	mtp_angle_l
     15.00000000	    -10.12218834	     -2.75342676	     -3.40302477	      2.13569213	      0.90971396	      0.98687164	     18.53574599	      7.41207343	     -0.44527599	     42.63147829	      0.74405966	     26.07377475	    -12.41859376	      0.00000000	     29.66983220	     -7.61614149	     -0.13634666	     84.00524005	      1.46616803	     -2.29565477	    -10.39239377	      0.00000000
     15.00666667	     -9.45354944	     -2.30900318	     -3.05522281	      2.13685078	      0.91472418	      0.98582937	     15.77852371	      6.42759063	     -1.11412031	     40.84098985	      0.71280974	     25.42143773	    -10.89772495	      0.00000000	     30.00701632	     -6.93138706	     -0.40717819	     82.36295926	      1.43750482	     -1.40060055	    -10.38134547	      0.00000000
     15.01333333	     -9.53471535	     -1.63048380	     -2.95155680	      2.13753660	      0.91888842	      0.98515480	     14.01003354	      5.39398149	     -1.38382846	     39.28190226	      0.68559853	     24.42979842	     -9.98741613	      0.00000000	     31.07878242	     -6.14512610	     -0.97197132	     80.53359597	      1.40557641	     -0.62859070	    -10.37073014	      0.00000000
     15.02000000	     -9.39616770	     -1.06827554	     -2.71919564	      2.13860975	      0.92352303	      0.98431010	     11.92420673	      4.39504990	     -1.99709069	     37.54467870	      0.65527826	     23.30742291	     -8.61776244	      0.00000000	     31.77754803	     -5.41352954	     -1.45233080	     78.42941542	      1.36885153	      0.07650933	    -10.48643641	      0.00000000
     15.02666667	     -9.97331448	     -0.38005491	     -2.73462974	      2.13918418	      0.92726157	      0.98384918	     10.81417728	      3.45481230	     -2.13480084	     36.07673415	      0.62965779	     21.84757595	     -7.80433459	      0.00000000	     33.18409305	     -4.72929303	     -2.21659316	     76.18126321	      1.32961387	      0.84441097	    -10.43002053	      0.00000000
     15.03333333	     -9.58629533	      0.25751538	     -2.29035243	      2.14078167	      0.93234153	      0.98268929	      8.44582383	      2.22400605	     -3.40672882	     34.25148546	      0.59780119	     20.24726413	     -6.27013306	      0.00000000	     33.33230090	     -3.76339620	     -2.65168359	     73.51449796	      1.28307004	      1.38901559	    -10.73837711	      0.00000000
     15.04000000	     -9.82065319	      0.94019649	     -2.03317586	      2.14189425	      0.93651686	      0.98186193	      6.93852261	      1.14084261	     -4.23541428	     32.69223441	      0.57058713	     18.42580220	     -5.15943269	      0.00000000	     34.09333205	     -2.88991628	     -3.27558440	     70.72469797	      1.23437884	      1.99875850	    -10.85457741	      0.00000000
     15.04666667	    -10.47087427	      1.57202205	     -1.94476564	      2.14270835	      0.94004461	      0.98132201	      6.03809305	      0.20106503	     -4.81605067	     31.34120592	      0.54700723	     16.32373070	     -4.33995156	      0.00000000	     35.23089914	     -2.23742914	     -4.11333735	     67.81532429	      1.18360069	      2.64384204	    -10.76053577	      0.00000000
     15.05333333	    -10.53359965	      2.18566103	     -1.48369226	      2.14404404	      0.94428628	      0.98017168	      4.35828005	     -0.81994102	     -5.98465351	     29.77803026	      0.51972467	     14.24943976	     -3.31712423	      0.00000000	     35.56321004	     -1.25665305	     -4.58615134	     64.55356525	      1.12667226	      3.10062151	    -10.91784640	      0.00000000
     15.06000000	    -10.79406038	      2.65768688	     -1.13883958	      2.14523178	      0.94802495	      0.97936123	      2.98659558	     -1.61369602	     -7.03021733	     28.34434777	      0.49470219	     12.04015404	     -2.16942988	      0.00000000	     36.03258068	     -0.57344084	     -5.20372957	     61.20791470	      1.06827964	      3.59388095	    -10.88685377	      0.00000000
     15.06666667	    -11.20322788	      3.10030221	     -0.80156734	      2.14625901	      0.95137654	      0.97848279	      1.88364603	     -2.33847481	     -7.95888501	     27.07757634	      0.47259286	      9.75034338	     -1.31886191	      0.00000000	     36.56701623	      0.10088781	     -5.84219716	     57.69208861	      1.00691690	      4.09581828	    -10.57633867	      0.00000000
     15.07333333	    -11.82410399	      3.46578270	     -0.51847800	      2.14706069	      0.95416275	      0.97765623	      1.16190022	     -2.96356210	     -8.76996643	     26.05542459	      0.45475295	      7.39972955	     -0.70700477	      0.00000000	     37.25706755	      0.66598019	     -6.53472235	     54.06760395	      0.94365771	      4.61571089	     -9.96472462	      0.00000000
     15.08000000	    -12.03816821	      3.72556419	     -0.11859496	      2.14819660	      0.95728425	      0.97666140	     -0.10119605	     -3.41491976	     -9.59040981	     24.85887977	      0.43386930	      5.14590826	      0.05279893	      0.00000000	     37.35583134	      1.26244629	     -7.05981269	     50.23535101	      0.87677228	      5.15423602	     -9.18191236	      0.00000000
     15.08666667	    -12.76620389	      3.84906568	      0.17040872	      2.14891131	      0.95936087	      0.97574473	     -0.56600503	     -3.72486903	    -10.17207598	     24.06387802	      0.41999390	      2.90452798	      0.63753119	      0.00000000	     37.98347587	      1.67242803	     -7.61942499	     46.39786967	      0.80979559	      5.70176585	     -8.11292350	      0.00000000
     15.09333333	    -12.70633407	      3.95992931	      0.55617394	      2.15014525	      0.96216170	      0.97465093	     -2.00358448	     -3.97924351	    -10.84765128	     23.06695621	      0.40259433	      0.75311440	      1.14812021	      0.00000000	     37.57973268	      2.18814969	     -8.11070079	     42.35733053	      0.73927488	      6.37380170	     -6.46867177	      0.00000000
